PathFileType	4	(X/Y/Z)	OpenSim_Sub09_CSStiffKnee_Gyro.trc
DataRate	CameraRate	NumFrames	NumMarkers	Units	OrigDataRate	OrigDataStartFrame	OrigNumFrames
100	100	33	8	m	100	891	7127
Frame#	Time	torso_imu_offset_imu	pelvis_imu_offset_imu	tibia_r_imu_offset_imu	femur_r_imu_offset_imu	tibia_l_imu_offset_imu	femur_l_imu_offset_imu	toes_r_imu_offset_imu	toes_l_imu_offset_imu
				X1	Y1	Z1	X2	Y2	Z2	X3	Y3	Z3	X4	Y4	Z4	X5	Y5	Z5	X6	Y6	Z6	X7	Y7	Z7	X8		Y8	Z8	

891	8.90000000	0.60637888	-0.11168247	0.16273022	0.62286984	-0.02612165	-0.40209334	-0.16879785	-0.50646962	-0.61267688	-0.92928432	-0.75891766	-0.70601837	2.92093714	-0.75154522	-1.01118464	-0.40031795	-0.44878293	-0.69513602	0.08722120	-0.06750477	-0.05190362	0.70860145	1.71784796	-0.05336199
892	8.91000000	0.62261098	-0.06404411	0.15659028	0.58511427	-0.05459269	-0.37586744	-0.17366765	-0.51411726	-0.56431457	-0.86939312	-0.64103649	-0.61842259	3.12670571	-0.78864832	-1.08441567	-0.03274753	-0.32144086	-0.77073720	0.04236202	-0.08103882	-0.05200146	1.03484864	1.50553712	0.09714369
893	8.92000000	0.63059506	0.00410099	0.15558436	0.54049928	-0.07865418	-0.33346301	-0.12223404	-0.50608565	-0.53245476	-0.73915476	-0.47127133	-0.57787419	2.91535713	-0.52293463	-1.16848268	0.45959648	-0.19449265	-0.80968648	0.03841029	-0.11949429	-0.04088033	1.40459309	1.37862503	0.22453289
894	8.93000000	0.61952569	0.08340527	0.15695409	0.48068010	-0.10056051	-0.26521187	-0.08549121	-0.46850532	-0.50040015	-0.58849723	-0.34925896	-0.58619114	2.39071208	-0.26496420	-1.24429835	1.00640245	-0.10953103	-0.83774246	-0.00278036	-0.12233830	-0.02241422	1.69323122	1.32947476	0.29015312
895	8.94000000	0.59071234	0.15123520	0.15817635	0.42072653	-0.12417115	-0.18450871	-0.11962717	-0.45581467	-0.50172471	-0.43002258	-0.28925116	-0.62769513	1.85611698	-0.20476987	-1.32510390	1.48999263	-0.05812004	-0.85779780	-0.03491373	-0.11095035	-0.01592747	1.80017431	1.38990363	0.25918708
896	8.95000000	0.54948042	0.19993197	0.15910453	0.37154975	-0.14661553	-0.11098738	-0.20088745	-0.44721475	-0.53817387	-0.27160319	-0.27326946	-0.68867114	1.50253059	-0.21058427	-1.36712620	1.83633200	-0.01472562	-0.92639456	-0.04055531	-0.10703457	-0.00964407	1.64439119	1.56216833	0.12628549
897	8.96000000	0.50597662	0.22869081	0.15699323	0.36191600	-0.18343669	-0.05401649	-0.26280119	-0.41313008	-0.56423146	-0.15940215	-0.27113421	-0.73922124	1.17930321	-0.17317663	-1.34528860	2.01566510	0.02506141	-1.03054782	-0.04232822	-0.09350121	0.00292106	1.28427319	1.73854734	-0.01101600
898	8.97000000	0.46272659	0.24722373	0.14598452	0.38880832	-0.20416778	-0.01851214	-0.30518950	-0.42090456	-0.59169015	-0.07444211	-0.27415364	-0.77094817	0.78251253	-0.12696385	-1.34399186	1.96861217	0.03105778	-1.10547805	-0.04900585	-0.05370052	0.01550526	0.86738850	1.79145889	-0.10072054
899	8.98000000	0.43208134	0.26112655	0.13730529	0.44412045	-0.20250196	-0.00420116	-0.29864571	-0.43865448	-0.64343408	-0.01292929	-0.28408657	-0.76797171	0.48237193	-0.09329993	-1.41149082	1.69759585	-0.01668608	-1.11557260	-0.03868629	0.00114543	0.03694940	0.54693876	1.73553083	-0.15143539
900	8.99000000	0.42828899	0.28322325	0.10949293	0.53222451	-0.20251796	-0.01281211	-0.33086166	-0.48762013	-0.72106517	0.05296445	-0.29405715	-0.75551593	0.33765983	-0.11146803	-1.52319113	1.29964805	-0.14874581	-1.13465491	-0.03115331	0.06360317	0.04567047	0.39998555	1.67115137	-0.23746936
901	9	0.45436087	0.30501129	0.08511335	0.65223009	-0.22163216	-0.03600936	-0.21775470	-0.44213077	-0.79354153	0.11956970	-0.33924428	-0.72402191	0.30135218	-0.23403339	-1.65646420	0.85319686	-0.32557076	-1.14446375	-0.01647625	0.11606150	0.01817428	0.39382386	1.65638139	-0.41263722
902	9.01000000	0.52289617	0.32714627	0.07547527	0.78473605	-0.22956215	-0.05772532	-0.00732401	-0.29059345	-0.77844824	0.18852179	-0.38705673	-0.68683406	0.28473959	-0.35847277	-1.79529698	0.31403744	-0.41019979	-1.11649299	0.04323059	0.04733291	-0.06128392	0.41177833	1.67233762	-0.73647412
903	9.02000000	0.62551099	0.33520269	0.07115493	0.86038134	-0.19286552	-0.05598556	0.11530432	-0.30796619	-0.62137824	0.19618609	-0.39385644	-0.65871009	-0.00881896	-0.28036673	-1.89081104	-0.24092579	-0.40634199	-1.14194531	0.09126374	-0.01668274	-0.10499684	0.43584656	1.65267480	-1.20269703
904	9.03000000	0.72560257	0.32636543	0.07026976	0.87234618	-0.16616605	-0.06539028	0.21692027	-0.28077250	-0.65480194	0.14898926	-0.37818581	-0.62288449	-0.62695346	-0.09380240	-1.95343243	-0.65929728	-0.40374093	-1.18568419	0.07271210	-0.03607241	-0.09227756	0.39254915	1.49484404	-1.65530607
905	9.04000000	0.78396014	0.31042428	0.07126012	0.85306250	-0.18117904	-0.10775368	0.26841314	-0.20452684	-0.67776873	0.16510150	-0.32937461	-0.58317074	-1.13465461	0.02862424	-2.03605454	-0.86709404	-0.40962249	-1.13736775	0.05214326	-0.04770251	-0.07628153	0.26938653	1.21404326	-1.98127855
906	9.05000000	0.80748066	0.29698054	0.07255696	0.81265755	-0.20118352	-0.18497027	0.23755649	-0.19401425	-0.56616851	0.24725016	-0.27412058	-0.56307660	-1.48160025	0.13682052	-2.09334938	-0.89655784	-0.40671147	-1.06087822	0.03020954	-0.06457273	-0.05176068	0.13153152	0.94322292	-2.18247523
907	9.06000000	0.81603568	0.29217119	0.09603607	0.74235351	-0.21510720	-0.26639798	0.03655637	-0.20860027	-0.50328130	0.30496654	-0.21799489	-0.56956021	-1.76323506	0.26879329	-2.04815769	-0.84180276	-0.38513410	-1.09033301	0.01189173	-0.04935586	-0.03752927	0.00268248	0.77061608	-2.27147866
908	9.07000000	0.79826428	0.28723255	0.12473625	0.61011171	-0.21886991	-0.34341282	-0.22614347	-0.26870528	-0.48793727	0.29817427	-0.20054552	-0.58686307	-1.91899524	0.32164860	-1.93743326	-0.73277443	-0.39116229	-1.15223738	0.00888955	-0.02506894	-0.05149824	-0.13795638	0.69213323	-2.23472753
909	9.08000000	0.76581578	0.27780697	0.16030769	0.46675248	-0.22708524	-0.40921607	-0.51265785	-0.30555845	-0.44615508	0.25741700	-0.23494419	-0.57543158	-1.91360834	0.24028567	-1.84862486	-0.66645747	-0.40821678	-1.19172710	0.02273067	-0.01088798	-0.09326320	-0.30379471	0.68645249	-2.07051138
910	9.09000000	0.71838705	0.28526538	0.18845934	0.33881922	-0.25935309	-0.44470171	-0.77257521	-0.38388518	-0.36637289	0.17129378	-0.22793628	-0.55247410	-1.79180055	0.13220135	-1.81889687	-0.65463914	-0.34548722	-1.28467980	0.06838199	0.01700415	-0.13431757	-0.36836357	0.76289938	-1.88714821
911	9.10000000	0.65882659	0.28774420	0.21608994	0.23014596	-0.30182932	-0.45243378	-0.90976675	-0.41584146	-0.31412229	-0.01597075	-0.17405328	-0.51929333	-1.63421657	0.17619053	-1.77748311	-0.60619227	-0.22914258	-1.34237731	0.09717355	0.04683955	-0.17237420	-0.19800991	0.89076054	-1.73895762
912	9.11000000	0.57756599	0.29289846	0.23723400	0.11845318	-0.33234564	-0.45842170	-0.90875228	-0.33088332	-0.26033684	-0.27829234	-0.12382805	-0.43681059	-1.44182140	0.25125588	-1.73023189	-0.55017234	-0.18232859	-1.32423494	0.10833287	0.03426159	-0.20416200	0.15633779	0.97186076	-1.55947283
913	9.12000000	0.46534659	0.31078211	0.24846083	-0.01183424	-0.37097371	-0.45020734	-0.84552155	-0.27713300	-0.15566411	-0.51589282	-0.14853203	-0.36608547	-0.87841276	0.13956381	-1.75760192	-0.45607919	-0.17444567	-1.24052991	0.11078609	-0.00555232	-0.22165150	0.49115473	1.06116597	-1.30290115
914	9.13000000	0.31743743	0.32746960	0.25597022	-0.16145002	-0.43309610	-0.41694278	-0.84475239	-0.23080003	-0.09873170	-0.68125668	-0.19690000	-0.39259365	0.00265271	0.02883912	-1.69918261	-0.22152537	-0.15905287	-1.12624732	0.10613054	-0.03058471	-0.23657622	0.69777482	1.25857903	-1.00316774
915	9.14000000	0.14807620	0.37252655	0.24592283	-0.32144185	-0.50185589	-0.37259063	-0.87012478	-0.16996557	-0.09589840	-0.73405098	-0.16710416	-0.47451864	0.72341570	0.05868771	-1.49344297	0.02363532	-0.19540151	-0.98230173	0.08881738	-0.06030247	-0.25516989	0.79774837	1.50587930	-0.64401718
916	9.15000000	-0.02678911	0.42215568	0.20300002	-0.47862513	-0.55105962	-0.32564085	-0.92240355	-0.15468262	-0.09129968	-0.68709236	-0.10772068	-0.53286516	1.19040679	0.02879130	-1.29795513	0.17284924	-0.21675603	-0.83171742	0.09280234	-0.07892770	-0.28283885	0.78187294	1.65159655	-0.24400115
917	9.16000000	-0.20350830	0.47337898	0.15315836	-0.63086452	-0.60770694	-0.28868115	-0.95266148	-0.14646532	-0.12092157	-0.68071749	-0.10607254	-0.57268447	1.49611437	-0.08811628	-1.10775600	0.24875658	-0.22704843	-0.71089484	0.09273124	-0.08339509	-0.31463193	0.69988532	1.64144516	0.15477561
918	9.17000000	-0.35789413	0.52678377	0.10685791	-0.76274336	-0.64053981	-0.26905306	-0.92683749	-0.13862968	-0.15270830	-0.70740753	-0.14229304	-0.56640431	1.61259314	-0.15794390	-0.86464817	0.21404109	-0.29299400	-0.59666665	0.10815185	-0.07562955	-0.35408865	0.62494291	1.49212699	0.48204795
919	9.18000000	-0.48873865	0.57875320	0.04490576	-0.88371512	-0.60978770	-0.25088311	-0.91119652	-0.16909969	-0.17144031	-0.64233341	-0.19560471	-0.51370530	1.41694182	-0.20331248	-0.61893371	0.05311919	-0.37227308	-0.51682578	0.15730189	-0.06258828	-0.39416510	0.61957358	1.26703154	0.69005704
920	9.19000000	-0.60547185	0.63299551	-0.02999780	-0.96078332	-0.57927016	-0.21638037	-0.92706926	-0.17173585	-0.22994690	-0.50309004	-0.16737266	-0.48444152	1.03621023	-0.24654389	-0.43129516	-0.16681189	-0.44954714	-0.46700225	0.19052530	-0.05897992	-0.42420406	0.64965364	1.01324012	0.78445198
921	9.20000000	-0.71865755	0.68516685	-0.10612248	-0.98913282	-0.54744004	-0.16186006	-0.92776474	-0.17621528	-0.35456425	-0.41894491	-0.15011379	-0.48314454	0.63752426	-0.23648420	-0.34536482	-0.39543446	-0.50534418	-0.40704381	0.18533322	-0.05345712	-0.43203556	0.64591951	0.68872626	0.77986917
922	9.21000000	-0.81167709	0.73403993	-0.17786588	-0.99147612	-0.52050934	-0.11531875	-0.87831641	-0.12096299	-0.44182509	-0.43277090	-0.17366419	-0.46981824	0.21478457	-0.16609375	-0.32312822	-0.59958805	-0.51711291	-0.31133255	0.19060657	-0.06292709	-0.41839864	0.61101476	0.32548515	0.65034237
923	9.22000000	-0.89336227	0.77061100	-0.23907278	-0.98669580	-0.52227814	-0.08221256	-0.73431181	-0.02370947	-0.49792827	-0.56537460	-0.10697435	-0.47959419	-0.01781213	-0.18092659	-0.27478544	-0.71426328	-0.51259292	-0.15594192	0.16751366	-0.07752372	-0.37773828	0.52861557	0.04688643	0.36882601
